<svg width="13" height="17" viewBox="0 0 13 17" fill="none" xmlns="http://www.w3.org/2000/svg">
<path fill-rule="evenodd" clip-rule="evenodd" d="M1.48241e-06 3.03968C1.48241e-06 2.36612 0.267574 1.72014 0.743857 1.24386C1.22014 0.767573 1.86612 0.5 2.53968 0.5L11.4286 0.5C11.6306 0.5 11.8244 0.580272 11.9673 0.723157C12.1102 0.866042 12.1905 1.05984 12.1905 1.2619V13.9603C12.1905 14.1624 12.1102 14.3562 11.9673 14.4991C11.8244 14.642 11.6306 14.7222 11.4286 14.7222H8.88889C8.68682 14.7222 8.49303 14.642 8.35014 14.4991C8.20726 14.3562 8.12699 14.1624 8.12699 13.9603C8.12699 13.7582 8.20726 13.5645 8.35014 13.4216C8.49303 13.2787 8.68682 13.1984 8.88889 13.1984H10.6667V11.1667H2.53968C2.33964 11.1667 2.14406 11.2258 1.97746 11.3365C1.81087 11.4473 1.68068 11.6047 1.60321 11.7892C1.52575 11.9736 1.50446 12.1768 1.54202 12.3733C1.57959 12.5698 1.67432 12.7508 1.81435 12.8937C1.9558 13.0381 2.03409 13.2328 2.03199 13.4349C2.0299 13.637 1.94759 13.83 1.80318 13.9715C1.65876 14.1129 1.46408 14.1912 1.26194 14.1891C1.05981 14.187 0.866784 14.1047 0.725335 13.9603C0.259772 13.4858 -0.000717015 12.8473 1.48241e-06 12.1825V3.03968ZM10.6667 2.02381V9.64286H2.53968C2.17803 9.64286 1.83467 9.71803 1.52381 9.85416V3.03968C1.52381 2.77026 1.63084 2.51187 1.82135 2.32135C2.01187 2.13084 2.27026 2.02381 2.53968 2.02381H10.6667ZM3.04762 12.9444V16.246C3.04762 16.2932 3.06075 16.3394 3.08555 16.3796C3.11035 16.4197 3.14583 16.4521 3.18801 16.4732C3.2302 16.4943 3.27742 16.5032 3.3244 16.499C3.37137 16.4947 3.41624 16.4775 3.45397 16.4492L4.92699 15.345C4.97095 15.312 5.02442 15.2942 5.07937 15.2942C5.13432 15.2942 5.18779 15.312 5.23175 15.345L6.70476 16.4492C6.7425 16.4775 6.78736 16.4947 6.83434 16.499C6.88131 16.5032 6.92854 16.4943 6.97072 16.4732C7.01291 16.4521 7.04839 16.4197 7.07318 16.3796C7.09798 16.3394 7.11111 16.2932 7.11111 16.246V12.9444C7.11111 12.8771 7.08436 12.8125 7.03673 12.7649C6.9891 12.7172 6.9245 12.6905 6.85714 12.6905H3.30159C3.23423 12.6905 3.16963 12.7172 3.12201 12.7649C3.07438 12.8125 3.04762 12.8771 3.04762 12.9444Z" fill="#B3B3B3"/>
</svg>
