<svg width="24" height="24" viewBox="0 0 24 24" fill="none" xmlns="http://www.w3.org/2000/svg">
<path d="M23.2486 21.6028L21.8099 20.1589C21.8596 20.0664 21.9127 19.9757 21.9588 19.8779C22.6426 18.4801 22.9863 16.6894 22.9863 14.5021V0.777118C22.9863 0.529934 22.919 0.337878 22.7844 0.202727C22.6497 0.0675755 22.469 0 22.2458 0H22.0456H21.6381H17.1043H16.6596H16.4984C16.2734 0 16.0891 0.0675755 15.9421 0.202727C15.795 0.337878 15.7242 0.529934 15.7242 0.777118V14.6034C15.7242 17.1269 15.1342 18.987 13.956 20.182C13.6371 20.5056 13.2845 20.7813 12.9036 21.0178C13.3536 21.0907 13.8285 21.128 14.3298 21.128C15.0013 21.128 15.6232 21.0551 16.2025 20.92C16.4293 20.5981 16.6348 20.2513 16.8173 19.8779C17.5012 18.4801 17.8449 16.6894 17.8449 14.5021V1.49377H20.8639V14.6034C20.8639 17.1269 20.2739 18.987 19.0957 20.182C17.9175 21.377 16.3283 21.9745 14.3298 21.9745C12.3083 21.9745 10.7103 21.377 9.53033 20.182C8.35215 18.987 7.76218 17.1286 7.76218 14.6034V1.67516V0.816241V0.777118C7.76218 0.529934 7.69485 0.337878 7.5602 0.202727C7.42556 0.0675755 7.23421 0 6.98795 0H6.82141H6.38025H1.84649H1.43546H1.24057C1.01556 0 0.836623 0.0675755 0.701974 0.202727C0.567325 0.337878 0.5 0.529934 0.5 0.777118V0.816241V1.67516V14.5003C0.5 16.6858 0.847253 18.4784 1.54353 19.8761C2.2398 21.2739 3.23195 22.3106 4.52352 22.9864C5.81154 23.6603 7.36177 23.9982 9.17422 24C9.05551 23.9449 8.93681 23.8915 8.82165 23.8311C7.75863 23.2745 6.90113 22.4689 6.24029 21.4232C5.5387 21.128 4.91861 20.7172 4.3871 20.1802C3.20892 18.9852 2.61895 17.1269 2.61895 14.6017V1.67338V1.49022H5.63792V1.67338V14.4985C5.63792 16.6841 5.98517 18.4766 6.68144 19.8743C7.37772 21.2721 8.36987 22.3088 9.66143 22.9846C10.953 23.6603 12.5068 23.9982 14.3263 23.9982C16.1671 23.9982 17.728 23.6603 19.0071 22.9846C19.2782 22.8405 19.5351 22.6769 19.7796 22.5009L21.0623 23.7884C21.3404 24.0676 21.7922 24.0676 22.0704 23.7884L23.2432 22.6111C23.5267 22.3355 23.5267 21.882 23.2486 21.6028Z" fill="black"/>
</svg>
