<svg width="57" height="36" viewBox="0 0 57 36" fill="none" xmlns="http://www.w3.org/2000/svg">
<path d="M190.707 28.682V28.1468H191.035C191.209 28.1468 191.479 28.166 191.479 28.3762C191.479 28.6056 191.344 28.6629 191.132 28.6629H190.707M190.707 29.0452H190.939L191.479 29.9627H192.057L191.459 29.007C191.749 28.9879 192.019 28.8541 192.019 28.4336C192.019 27.9175 191.672 27.7646 191.074 27.7646H190.225V29.9627H190.727L190.707 29.0452ZM193.195 28.8732C193.195 27.5734 192.192 26.828 191.054 26.828C189.936 26.828 188.914 27.5734 188.914 28.8732C188.914 30.1729 189.917 30.9184 191.054 30.9184C192.192 30.9184 193.195 30.1729 193.195 28.8732ZM192.578 28.8732C192.578 29.8098 191.884 30.4405 191.054 30.4405C190.206 30.4405 189.531 29.8098 189.531 28.8732C189.531 27.9366 190.225 27.3058 191.054 27.3058C191.884 27.3249 192.578 27.9557 192.578 28.8732ZM114.75 7.08297V30.2303H121.345V7.08297H114.75ZM62.9159 7.04474V30.2112H69.5687V12.2247L74.7559 12.2438C76.4529 12.2438 77.6484 12.6643 78.4583 13.5245C79.4997 14.614 79.9239 16.4107 79.9239 19.641V30.2112H86.3646V17.4238C86.3646 8.28717 80.4831 7.04474 74.7559 7.04474H62.9159ZM125.375 7.08297V30.2303H136.058C141.747 30.2303 143.617 29.2937 145.623 27.1911C147.05 25.7193 147.956 22.4699 147.956 18.9147C147.956 15.6653 147.185 12.7599 145.815 10.944C143.405 7.71374 139.876 7.08297 134.612 7.08297H125.375ZM131.912 12.11H134.747C138.854 12.11 141.515 13.9259 141.515 18.6853C141.515 23.4256 138.873 25.2606 134.747 25.2606H131.912V12.11ZM105.262 7.08297L99.7666 25.4135L94.5022 7.08297H87.3866L94.9071 30.2303H104.395L111.973 7.08297H105.262ZM151.041 30.2112H157.636V7.08297H151.041V30.2112ZM169.515 7.08297L160.317 30.2112H166.815L168.281 26.1398H179.176L180.564 30.2112H187.622L178.327 7.08297H169.515ZM173.796 11.3072L177.787 22.1259H169.669L173.796 11.3072ZM20.3959 10.9249V7.75197C20.7044 7.73285 21.0322 7.71374 21.3408 7.71374C30.134 7.44614 35.8805 15.1874 35.8805 15.1874C35.8805 15.1874 29.6712 23.7506 22.9991 23.7506C22.035 23.7506 21.1865 23.5977 20.4151 23.3301V13.6774C23.8283 14.0979 24.5225 15.5888 26.5859 18.972L31.156 15.1492C31.156 15.1492 27.82 10.8102 22.1892 10.8102C21.5722 10.8294 20.9744 10.8676 20.3959 10.9249ZM20.3959 0.412109V5.15244C20.7044 5.13332 21.0322 5.11421 21.3408 5.09509C33.5472 4.67458 41.5112 15.0154 41.5112 15.0154C41.5112 15.0154 32.3709 26.0443 22.8641 26.0443C21.9964 26.0443 21.1865 25.9678 20.4151 25.834V28.7776C21.0708 28.8541 21.765 28.9114 22.4592 28.9114C31.3296 28.9114 37.7317 24.4196 43.941 19.1249C44.963 19.9468 49.1861 21.9347 50.0538 22.7949C44.1531 27.6881 30.404 31.6447 22.6135 31.6447C21.8614 31.6447 21.1479 31.6065 20.4344 31.5301V35.6587H54.1226V0.412109L20.3959 0.412109ZM20.3959 23.3492V25.8531C12.2004 24.4005 9.92494 15.952 9.92494 15.952C9.92494 15.952 13.8588 11.6322 20.3959 10.9249V13.6774H20.3766C16.9634 13.2569 14.2637 16.4489 14.2637 16.4489C14.2637 16.4489 15.7871 21.7818 20.3959 23.3492ZM5.83685 15.5888C5.83685 15.5888 10.6963 8.49742 20.3959 7.75197V5.17155C9.65498 6.03169 0.360352 15.0536 0.360352 15.0536C0.360352 15.0536 5.62474 30.1538 20.3959 31.5492V28.7967C9.55856 27.4396 5.83685 15.5888 5.83685 15.5888Z" fill="black"/>
</svg>
