<svg width="32" height="32" viewBox="0 0 32 32" fill="none" xmlns="http://www.w3.org/2000/svg">
<path d="M31.2192 28.8038L29.2765 26.8785C29.3435 26.7552 29.4153 26.6343 29.4775 26.5039C30.401 24.6402 30.8651 22.2525 30.8651 19.3361V1.03616C30.8651 0.706579 30.7742 0.450504 30.5924 0.270302C30.4105 0.0901006 30.1665 0 29.865 0H29.5947H29.0444H22.9221H22.3216H22.1039C21.8001 0 21.5513 0.0901006 21.3527 0.270302C21.1541 0.450504 21.0584 0.706579 21.0584 1.03616V19.4713C21.0584 22.8358 20.2617 25.3159 18.6707 26.9093C18.2401 27.3408 17.764 27.7084 17.2496 28.0237C17.8573 28.1209 18.4985 28.1707 19.1755 28.1707C20.0823 28.1707 20.922 28.0735 21.7044 27.8933C22.0106 27.4641 22.2881 27.0018 22.5345 26.5039C23.458 24.6402 23.9222 22.2525 23.9222 19.3361V1.9917H27.9989V19.4713C27.9989 22.8358 27.2022 25.3159 25.6113 26.9093C24.0203 28.5027 21.8742 29.2993 19.1755 29.2993C16.4457 29.2993 14.2877 28.5027 12.6944 26.9093C11.1034 25.3159 10.3067 22.8382 10.3067 19.4713V2.23355V1.08832V1.03616C10.3067 0.706579 10.2158 0.450504 10.034 0.270302C9.85212 0.0901006 9.59374 0 9.26119 0H9.0363H8.44057H2.31827H1.76322H1.50005C1.19621 0 0.954568 0.0901006 0.772741 0.270302C0.590914 0.450504 0.5 0.706579 0.5 1.03616V1.08832V2.23355V19.3337C0.5 22.2478 0.968923 24.6378 1.90916 26.5015C2.8494 28.3651 4.18917 29.7475 5.93328 30.6485C7.67259 31.5471 9.766 31.9976 12.2135 32C12.0532 31.9265 11.8929 31.8554 11.7374 31.7747C10.3019 31.0326 9.14396 29.9585 8.25157 28.5643C7.30415 28.1707 6.46679 27.623 5.74906 26.9069C4.15807 25.3136 3.36138 22.8358 3.36138 19.4689V2.23118V1.98696H7.43813V2.23118V19.3314C7.43813 22.2454 7.90705 24.6354 8.84729 26.4991C9.78753 28.3628 11.1273 29.7451 12.8714 30.6461C14.6155 31.5471 16.7137 31.9976 19.1708 31.9976C21.6565 31.9976 23.7643 31.5471 25.4916 30.6461C25.8577 30.4541 26.2046 30.2359 26.5347 30.0012L28.2669 31.7178C28.6425 32.0901 29.2526 32.0901 29.6282 31.7178L31.212 30.1482C31.5948 29.7807 31.5948 29.1761 31.2192 28.8038Z" fill="black"/>
</svg>
