<svg width="23" height="24" viewBox="0 0 23 24" fill="none" xmlns="http://www.w3.org/2000/svg">
<path d="M22.77 21.6028L21.3314 20.1589C21.381 20.0664 21.4342 19.9757 21.4802 19.8779C22.1641 18.4801 22.5078 16.6894 22.5078 14.5021V0.777118C22.5078 0.529934 22.4405 0.337878 22.3059 0.202727C22.1712 0.0675755 21.9905 0 21.7673 0H21.5671H21.1596H16.6258H16.1811H16.0199C15.7949 0 15.6106 0.0675755 15.4636 0.202727C15.3165 0.337878 15.2457 0.529934 15.2457 0.777118V14.6034C15.2457 17.1269 14.6557 18.987 13.4775 20.182C13.1586 20.5056 12.806 20.7813 12.4251 21.0178C12.8751 21.0907 13.3499 21.128 13.8513 21.128C14.5228 21.128 15.1447 21.0551 15.724 20.92C15.9508 20.5981 16.1563 20.2513 16.3388 19.8779C17.0227 18.4801 17.3664 16.6894 17.3664 14.5021V1.49377H20.3853V14.6034C20.3853 17.1269 19.7954 18.987 18.6172 20.182C17.439 21.377 15.8498 21.9745 13.8513 21.9745C11.8298 21.9745 10.2318 21.377 9.05181 20.182C7.87364 18.987 7.28366 17.1286 7.28366 14.6034V1.67516V0.816241V0.777118C7.28366 0.529934 7.21634 0.337878 7.08169 0.202727C6.94704 0.0675755 6.7557 0 6.50943 0H6.34289H5.90174H1.36797H0.95694H0.762053C0.537048 0 0.358107 0.0675755 0.223458 0.202727C0.0888093 0.337878 0.0214844 0.529934 0.0214844 0.777118V0.816241V1.67516V14.5003C0.0214844 16.6858 0.368737 18.4784 1.06501 19.8761C1.76129 21.2739 2.75344 22.3106 4.045 22.9864C5.33303 23.6603 6.88326 23.9982 8.6957 24C8.577 23.9449 8.4583 23.8915 8.34314 23.8311C7.28012 23.2745 6.42262 22.4689 5.76178 21.4232C5.06018 21.128 4.44009 20.7172 3.90858 20.1802C2.73041 18.9852 2.14043 17.1269 2.14043 14.6017V1.67338V1.49022H5.1594V1.67338V14.4985C5.1594 16.6841 5.50665 18.4766 6.20293 19.8743C6.8992 21.2721 7.89135 22.3088 9.18292 22.9846C10.4745 23.6603 12.0283 23.9982 13.8478 23.9982C15.6886 23.9982 17.2494 23.6603 18.5286 22.9846C18.7997 22.8405 19.0566 22.6769 19.3011 22.5009L20.5838 23.7884C20.8619 24.0676 21.3137 24.0676 21.5919 23.7884L22.7647 22.6111C23.0482 22.3355 23.0482 21.882 22.77 21.6028Z" fill="white"/>
</svg>
