<svg width="22" height="14" viewBox="0 0 22 14" fill="none" xmlns="http://www.w3.org/2000/svg">
<path d="M20.625 0.625165C19.7871 1.10363 18.8593 1.46958 17.8775 1.70891C17.3505 1.2184 16.6502 0.870738 15.8712 0.712946C15.0921 0.555153 14.2721 0.594845 13.5218 0.826653C12.7716 1.05846 12.1274 1.4712 11.6764 2.00905C11.2253 2.5469 10.9892 3.1839 11 3.83391V4.54225C9.4623 4.57453 7.93861 4.29845 6.56463 3.73861C5.19065 3.17876 4.00903 2.35253 3.125 1.3335C3.125 1.3335 -0.375 7.7085 7.5 10.5418C5.69796 11.5321 3.55126 12.0286 1.375 11.9585C9.25 15.5002 18.875 11.9585 18.875 3.81266C18.8742 3.61536 18.8508 3.41854 18.805 3.22475C19.698 2.51181 20.3282 1.61167 20.625 0.625165V0.625165Z" stroke="#B3B3B3" stroke-linecap="round" stroke-linejoin="round"/>
</svg>
