<svg width="22" height="18" viewBox="0 0 22 18" fill="none" xmlns="http://www.w3.org/2000/svg">
<path fill-rule="evenodd" clip-rule="evenodd" d="M11 0.500122C5.19875 0.500122 0.5 4.30387 0.5 9.00012C0.5 12.7614 3.50562 15.9382 7.67937 17.0645C8.20437 17.1389 8.40125 16.8839 8.40125 16.6607C8.40125 16.4589 8.38813 15.7895 8.38813 15.0776C5.75 15.4707 5.0675 14.557 4.8575 14.0789C4.73938 13.8345 4.2275 13.0801 3.78125 12.8782C3.41375 12.7189 2.88875 12.3257 3.76813 12.3151C4.595 12.3045 5.18563 12.9314 5.3825 13.1864C6.3275 14.472 7.83688 14.1107 8.44063 13.8876C8.5325 13.3351 8.80812 12.9632 9.11 12.7507C6.77375 12.5382 4.3325 11.8051 4.3325 8.55387C4.3325 7.6295 4.73938 6.8645 5.40875 6.2695C5.30375 6.057 4.93625 5.18575 5.51375 4.017C5.51375 4.017 6.39313 3.79387 8.40125 4.88825C9.24125 4.697 10.1338 4.60137 11.0263 4.60137C11.9188 4.60137 12.8113 4.697 13.6513 4.88825C15.6594 3.78325 16.5387 4.017 16.5387 4.017C17.1163 5.18575 16.7488 6.057 16.6438 6.2695C17.3131 6.8645 17.72 7.61887 17.72 8.55387C17.72 11.8157 15.2656 12.5382 12.9294 12.7507C13.31 13.0164 13.6381 13.5264 13.6381 14.3232C13.6381 15.4601 13.625 16.3739 13.625 16.6607C13.625 16.8839 13.8219 17.1495 14.3469 17.0645C16.4313 16.4948 18.2426 15.4104 19.5258 13.9637C20.809 12.5171 21.4994 10.7811 21.5 9.00012C21.5 4.30387 16.8013 0.500122 11 0.500122Z" fill="#B3B3B3"/>
</svg>
