<svg width="22" height="18" viewBox="0 0 22 18" fill="none" xmlns="http://www.w3.org/2000/svg">
<g clip-path="url(#clip0_219_603)">
<path d="M20.222 5.04766C20.1181 4.71149 19.9064 4.40348 19.6083 4.15474C19.3103 3.906 18.9364 3.72534 18.5245 3.631C17.0195 3.3335 10.9995 3.3335 10.9995 3.3335C10.9995 3.3335 4.97952 3.3335 3.47452 3.65933C3.06261 3.75367 2.68875 3.93433 2.3907 4.18308C2.09265 4.43182 1.88096 4.73983 1.77702 5.076C1.50159 6.31243 1.36686 7.56672 1.37452 8.82308C1.36471 10.0889 1.49945 11.3528 1.77702 12.5985C1.89161 12.9242 2.10804 13.2205 2.4054 13.4588C2.70276 13.697 3.07099 13.8691 3.47452 13.9585C4.97952 14.2843 10.9995 14.2843 10.9995 14.2843C10.9995 14.2843 17.0195 14.2843 18.5245 13.9585C18.9364 13.8642 19.3103 13.6835 19.6083 13.4347C19.9064 13.186 20.1181 12.878 20.222 12.5418C20.4953 11.3147 20.6301 10.07 20.6245 8.82308C20.6343 7.55726 20.4996 6.29341 20.222 5.04766V5.04766Z" stroke="#B3B3B3" stroke-linecap="round" stroke-linejoin="round"/>
<path d="M9.03125 11.1393L14.0625 8.82309L9.03125 6.50684V11.1393Z" stroke="#B3B3B3" stroke-linecap="round" stroke-linejoin="round"/>
</g>
<defs>
<clipPath id="clip0_219_603">
<rect width="21" height="17" fill="white" transform="translate(0.5 0.500122)"/>
</clipPath>
</defs>
</svg>
