<svg width="22" height="18" viewBox="0 0 22 18" fill="none" xmlns="http://www.w3.org/2000/svg">
<path d="M14.5 6.16675C15.8924 6.16675 17.2277 6.61451 18.2123 7.41154C19.1969 8.20857 19.75 9.28958 19.75 10.4167V15.3751H16.25V10.4167C16.25 10.041 16.0656 9.68069 15.7374 9.41501C15.4092 9.14934 14.9641 9.00008 14.5 9.00008C14.0359 9.00008 13.5908 9.14934 13.2626 9.41501C12.9344 9.68069 12.75 10.041 12.75 10.4167V15.3751H9.25V10.4167C9.25 9.28958 9.80312 8.20857 10.7877 7.41154C11.7723 6.61451 13.1076 6.16675 14.5 6.16675V6.16675Z" stroke="#B3B3B3" stroke-linecap="round" stroke-linejoin="round"/>
<path d="M5.75 6.87512H2.25V15.3751H5.75V6.87512Z" stroke="#B3B3B3" stroke-linecap="round" stroke-linejoin="round"/>
<path d="M4 4.75008C4.9665 4.75008 5.75 4.11582 5.75 3.33341C5.75 2.55101 4.9665 1.91675 4 1.91675C3.0335 1.91675 2.25 2.55101 2.25 3.33341C2.25 4.11582 3.0335 4.75008 4 4.75008Z" stroke="#B3B3B3" stroke-linecap="round" stroke-linejoin="round"/>
</svg>
